<svg width="22" height="22" viewBox="0 0 22 22" fill="none" xmlns="http://www.w3.org/2000/svg">
<path d="M0.25 6.25C0.25 2.93629 2.93629 0.25 6.25 0.25H15.75C19.0637 0.25 21.75 2.93629 21.75 6.25V15.75C21.75 19.0637 19.0637 21.75 15.75 21.75H6.25C2.93629 21.75 0.25 19.0637 0.25 15.75V6.25Z" fill="#BFBFBF"/>
<path fill-rule="evenodd" clip-rule="evenodd" d="M16.3286 5.67579C16.4692 5.81644 16.5482 6.00721 16.5482 6.20612L16.5482 13.2772C16.5482 13.6914 16.2124 14.0272 15.7982 14.0272C15.384 14.0272 15.0482 13.6914 15.0482 13.2772L15.0482 8.01678L6.73211 16.3329C6.43922 16.6258 5.96434 16.6258 5.67145 16.3329C5.37856 16.04 5.37856 15.5651 5.67145 15.2722L13.9876 6.95612L8.72716 6.95612C8.31295 6.95612 7.97716 6.62033 7.97716 6.20612C7.97716 5.7919 8.31295 5.45612 8.72716 5.45612L15.7982 5.45612C15.9971 5.45612 16.1879 5.53514 16.3286 5.67579Z" fill="black"/>
</svg>
